<svg xmlns:xlink="http://www.w3.org/1999/xlink" xmlns="http://www.w3.org/2000/svg" viewBox="0 0 527.988 405.161" width="527.988"  height="405.161" ><defs><clipPath id="a"><path d="M0 500h750V0H0z"/></clipPath><clipPath id="b"><path d="M341.114 119.9h316.371V91.263H341.114z"/></clipPath><clipPath id="c"><path d="M601.067 70.856h122.489V57.018H601.067z"/></clipPath><clipPath id="d"><path d="M327.564 246.778h102.961V120.964H327.564z"/></clipPath><clipPath id="e"><path d="M519.174 213.971h22.95V109.967h-22.95z"/></clipPath><clipPath id="f"><path d="M440.317 260.66h80.016V128.423h-80.016z"/></clipPath><clipPath id="g"><path d="M383.617 111.117h61.89v-1.795h-61.89z"/></clipPath><clipPath id="h"><path d="M390.39 122.607h61.89v-1.795h-61.89z"/></clipPath><clipPath id="i"><path d="M383.617 134.098h61.89v-1.796h-61.89z"/></clipPath><clipPath id="j"><path d="M378.349 145.588h61.89v-1.795h-61.89z"/></clipPath><clipPath id="k"><path d="M385.331 157.078h61.891v-1.795h-61.891z"/></clipPath><clipPath id="l"><path d="M385.537 162.62h29.73v-53.298h-29.73z"/></clipPath><clipPath id="m"><path d="M357.16 155.165h41.37v-21.853h-41.37z"/></clipPath><clipPath id="n"><path d="M369.617 149.003h25.275v-34.619h-25.275z"/></clipPath><clipPath id="o"><path d="M0 500h750V0H0z"/></clipPath><clipPath id="p"><path d="M607.658 230.267h63.685v-33.641h-63.685z"/></clipPath><clipPath id="q"><path d="M626.158 220.496h38.907v-53.293h-38.907z"/></clipPath></defs><g clip-path="url(#a)" transform="matrix(1.33333 0 0 -1.33333 -436.753 481.185)"><g clip-path="url(#b)" opacity=".2"><path fill="#89c3ef" d="M657.484 105.582c0-7.908-70.82-14.318-158.185-14.318-87.363 0-158.185 6.41-158.185 14.318 0 7.907 70.822 14.318 158.185 14.318 87.364 0 158.185-6.411 158.185-14.318"/></g><g clip-path="url(#c)" opacity=".2"><path fill="#89c3ef" d="M723.556 63.937c0-3.821-27.42-6.92-61.244-6.92s-61.244 3.099-61.244 6.92c0 3.82 27.42 6.92 61.244 6.92s61.244-3.1 61.244-6.92"/></g><path fill="#afd2f9" d="M633.83 110.063c-.978 6.541 1.746 13.517 5.591 19.103 4.576 6.647 10.667 12.178 14.945 19.021 10.423 16.668 8.306 38.898-.759 56.343-8.225 15.832-22.167 31.804-17.405 48.998 2.511 9.066 9.82 15.85 15.04 23.676 5.22 7.825 8.09 19.104 1.812 26.108-3.699 4.126-9.666 5.526-15.198 5.203-10.606-.62-20.679-7.125-25.605-16.54-3.733-7.135-4.588-15.523-8.47-22.579-5.049-9.177-14.48-14.909-22.017-22.183-19.15-18.481-25.525-48.988-15.376-73.591 2.613-6.337.712-11.956-3.595-17.287-2.185-2.703-5.023-4.867-6.926-7.774-2.262-3.455-3.02-7.704-3.03-11.834-.027-9.5 4.574-19.547 11.413-26.665z"/><path fill="#71abea" d="M639.589 298.574a65.757 65.757 0 0 1-12.075-11.69c-1.111 3.536-1.457 7.196-.93 10.929.177 1.247-1.733 1.786-1.911.527-.647-4.574-.207-9.031 1.397-13.333-9.565-12.871-14.48-29.096-12.865-45.277.605-6.06 2.016-12.007 3.414-17.952a79.8 79.8 0 0 0-16.762 28.536c-.404 1.203-2.318.687-1.912-.527 4.024-12.022 10.652-22.812 19.559-31.82 1.356-5.946 2.526-11.914 2.694-18.014a.805.805 0 0 1 .002-.69c.01-.646.023-1.29.008-1.94-.123-5.537-1.166-10.896-2.727-16.13a134.067 134.067 0 0 0-35.023 37.44c-.677 1.079-2.392.085-1.712-1 9.447-15.063 21.673-28.054 36.11-38.427-2.702-8.318-6.608-16.331-10.145-24.24-6.071-13.573-11.274-27.98-8.907-43.052.197-1.256 2.107-.722 1.91.528-2.38 15.159 2.946 28.76 9.007 42.258.095.018.19.03.289.08 10.908 5.526 20.246 13.325 27.7 23.01.777 1.01-.943 1.999-1.712 1-6.767-8.794-15.251-15.934-24.975-21.21 4.897 10.78 9.946 21.557 11.59 33.077.408 2.84.539 5.65.483 8.442 6.598 5.774 11.824 12.725 15.52 20.684.536 1.15-1.173 2.159-1.71 1a60.695 60.695 0 0 0-13.914-19.098c-.333 5.417-1.33 10.766-2.5 16.11.194.34.204.773-.154 1.13l-.122.125c-.61 2.73-1.25 5.46-1.86 8.199-1.246 5.607-2.068 11.154-2.255 16.684 7.454 4.724 13.957 10.593 19.379 17.572.773.995-.62 2.408-1.402 1.4a74.253 74.253 0 0 0-18.017-16.631c-.004 5.923.756 11.834 2.564 17.785a64.79 64.79 0 0 0 9.776 19.49c.604.017 1.169.472.88 1.175v.002a63.3 63.3 0 0 0 12.308 12.137c1.012.753.024 2.474-1 1.71"/><path fill="#e6daf7" d="M405.062 317.749c14.896-20.915 25.289-44.932 30.295-70.122a181.604 181.604 0 0 0 2.924-21.461c.103-1.34 2.188-1.2 2.085.143-1.984 25.734-9.424 50.925-21.713 73.623a183.097 183.097 0 0 1-11.864 18.992c-.779 1.094-2.51-.076-1.728-1.175"/><path fill="#e6daf7" d="M419.467 296.408a71.749 71.749 0 0 1-11.716 7.955c-1.183.643-2.176-1.197-.993-1.838a69.551 69.551 0 0 0 13.685-9.735 59.917 59.917 0 0 0-.976 3.618m7.598 8.02l-3.47-17.798c-.259-1.321 1.79-1.737 2.046-.416l3.471 17.797c.258 1.32-1.79 1.737-2.048.417m-12.071-25.898c4.903-3.023 9.807-6.044 14.71-9.066 1.146-.706 2.064 1.171.93 1.871l-14.71 9.066c-1.148.706-2.067-1.172-.93-1.872m-7.137 49.689c4.49-6.092 1.896-15.625 1.896-15.625s-9.875.343-14.365 6.435c-4.49 6.09-1.895 15.625-1.895 15.625s9.874-.343 14.364-6.435"/><path fill="#e6daf7" d="M403.75 311.866c6.982-2.918 9.656-12.43 9.656-12.43s-8.647-4.78-15.63-1.862c-6.982 2.918-9.655 12.43-9.655 12.43s8.647 4.78 15.629 1.862m12.164-23.222c6.331-4.146 7.22-13.987 7.22-13.987s-9.376-3.117-15.706 1.03c-6.33 4.145-7.22 13.986-7.22 13.986s9.376 3.117 15.706-1.029m5.514-35.008l14.71-9.065c1.147-.706 2.065 1.17.93 1.872-4.904 3.02-9.808 6.043-14.711 9.065-1.147.706-2.065-1.172-.93-1.872"/><path fill="#e6daf7" d="M422.35 263.751c6.33-4.146 7.219-13.986 7.219-13.986s-9.375-3.118-15.706 1.028c-6.33 4.147-7.22 13.987-7.22 13.987s9.376 3.117 15.707-1.029m14.73 41.899c-1.927-7.317-10.978-11.28-10.978-11.28s-5.928 7.905-4.002 15.223c1.925 7.318 10.976 11.28 10.976 11.28s5.93-7.904 4.003-15.222m-1.791-25.091l-3.47-17.797c-.258-1.322 1.79-1.737 2.047-.417l3.471 17.797c.258 1.32-1.79 1.737-2.048.417"/><path fill="#e6daf7" d="M445.303 281.783c-1.926-7.318-10.978-11.28-10.978-11.28s-5.928 7.904-4.002 15.222c1.925 7.319 10.977 11.28 10.977 11.28s5.929-7.903 4.003-15.222"/><g clip-path="url(#d)" opacity=".54"><path fill="#bcedca" d="M368.543 157.636c6.643-10.943 2.36-24.687-2.934-36.671H427.8c2.541 12.49 4.007 25.424 1.201 37.823-2.993 13.216-11.663 25.81-24.444 30.31-6.038 2.126-12.81 2.445-18.169 5.947-12.03 7.865-10.357 26.327-18.783 37.97-8.61 11.898-25.355 13.872-40.04 13.759 9.77-5.937 9.315-19.966 8.736-31.385-.579-11.418-2.12-23.898 4.295-33.36 6.995-10.318 21.48-13.738 27.947-24.393"/></g><path fill="#9ed8ae" d="M343.418 234.287c13.194-13.909 5.484-36.044 15.118-51.746 4.854-7.91 13.091-10.736 21.256-14.058 8.511-3.463 15.354-9.108 19.803-17.224 4.733-8.637 6.149-18.89 3.485-28.4-.506-1.806 2.3-2.577 2.805-.774 4.545 16.227-2.107 34.576-15.859 44.293-7.983 5.641-18.846 6.565-25.854 13.631-7.035 7.093-8.062 17.95-8.96 27.377-.978 10.26-2.333 21.15-9.737 28.957-1.291 1.36-3.345-.699-2.057-2.056"/><path fill="#9ed8ae" d="M407.79 172.3c.178-9.071-1.348-17.95-4.517-26.45-.655-1.756 2.156-2.514 2.804-.774a73.522 73.522 0 0 1 4.62 27.225c-.037 1.868-2.945 1.875-2.908 0m-32.537-12.243c6.503-3.661 13.794-5.252 21.23-4.544 1.847.176 1.865 3.085 0 2.907-6.947-.661-13.678.722-19.764 4.149-1.632.919-3.1-1.592-1.467-2.512m8.117 28.256a101.16 101.16 0 0 0 2.096-21.018c-.008-1.871 2.9-1.874 2.908 0a104.996 104.996 0 0 1-2.199 21.79c-.38 1.831-3.184 1.056-2.805-.773m-38.553.94l13.064-5.752c1.697-.747 3.179 1.757 1.468 2.51l-13.064 5.754c-1.697.747-3.178-1.758-1.468-2.512m20.032 26.622c-1.257-8.831-4.388-17.117-9.31-24.56-1.036-1.564 1.482-3.022 2.511-1.466a61.285 61.285 0 0 1 9.603 25.253c.261 1.831-2.54 2.621-2.804.773m-22.301 2.957l9.393-5.289c1.633-.919 3.101 1.592 1.468 2.511l-9.394 5.289c-1.632.92-3.1-1.592-1.467-2.511"/><path fill="#8adddd" d="M535.89 217.656c-8.731 0-15.835 7.104-15.835 15.835 0 8.731 7.104 15.834 15.835 15.834 8.73 0 15.834-7.103 15.834-15.834 0-8.73-7.103-15.835-15.834-15.835m32.282 22.035h-4.23a28.532 28.532 0 0 1-3.655 8.952l2.954 2.953c1.994 1.996 1.994 5.26 0 7.254l-1.794 1.794c-1.995 1.995-5.26 1.995-7.254 0l-2.91-2.91a28.563 28.563 0 0 1-8.996 3.763v4.078a5.144 5.144 0 0 1-5.13 5.13h-2.536c-2.821 0-5.128-2.308-5.128-5.13v-4.078a28.578 28.578 0 0 1-8.997-3.763l-2.91 2.91c-1.994 1.995-5.258 1.995-7.254 0l-1.793-1.794c-1.995-1.994-1.995-5.258 0-7.254l2.954-2.953a28.532 28.532 0 0 1-3.655-8.952h-4.23a5.144 5.144 0 0 1-5.13-5.13v-2.536a5.143 5.143 0 0 1 5.13-5.129h4.32a28.57 28.57 0 0 1 3.719-8.799l-3.108-3.107c-1.995-1.995-1.995-5.259 0-7.254l1.793-1.793c1.996-1.995 5.26-1.995 7.254 0l3.15 3.15a28.565 28.565 0 0 1 8.757-3.609v-4.473c0-2.82 2.307-5.129 5.128-5.129h2.537c2.82 0 5.129 2.308 5.129 5.13v4.472a28.56 28.56 0 0 1 8.755 3.61l3.15-3.15c1.996-1.996 5.26-1.996 7.255 0l1.794 1.792c1.994 1.995 1.994 5.26 0 7.254l-3.108 3.107a28.544 28.544 0 0 1 3.717 8.8h4.322c2.82 0 5.129 2.307 5.129 5.128v2.536a5.144 5.144 0 0 1-5.13 5.13"/><path fill="#a8dff4" d="M597.635 234.762c-5.994 0-10.871 4.877-10.871 10.872s4.877 10.872 10.87 10.872c5.996 0 10.873-4.877 10.873-10.872s-4.877-10.872-10.872-10.872M619.8 249.89h-2.904a19.626 19.626 0 0 1-2.51 6.146l2.028 2.028a3.534 3.534 0 0 1 0 4.98l-1.231 1.232a3.532 3.532 0 0 1-4.981 0l-1.998-1.998a19.619 19.619 0 0 1-6.176 2.584v2.8a3.532 3.532 0 0 1-3.522 3.522h-1.741a3.532 3.532 0 0 1-3.522-3.522v-2.8a19.619 19.619 0 0 1-6.176-2.584l-1.998 1.998a3.532 3.532 0 0 1-4.981 0l-1.231-1.231a3.534 3.534 0 0 1 0-4.981l2.027-2.028a19.626 19.626 0 0 1-2.51-6.146h-2.903a3.532 3.532 0 0 1-3.522-3.522v-1.742a3.532 3.532 0 0 1 3.522-3.521h2.967a19.603 19.603 0 0 1 2.552-6.041l-2.133-2.134a3.533 3.533 0 0 1 0-4.98l1.23-1.232a3.534 3.534 0 0 1 4.982 0l2.163 2.163a19.626 19.626 0 0 1 6.01-2.477v-3.072a3.532 3.532 0 0 1 3.523-3.521h1.74a3.532 3.532 0 0 1 3.523 3.52v3.073a19.626 19.626 0 0 1 6.01 2.477l2.164-2.163a3.534 3.534 0 0 1 4.98 0l1.232 1.232a3.533 3.533 0 0 1 0 4.98l-2.133 2.134a19.627 19.627 0 0 1 2.552 6.04h2.967a3.532 3.532 0 0 1 3.522 3.522v1.742a3.532 3.532 0 0 1-3.522 3.522"/><path fill="#cdd6fc" d="M562.973 276.788c-5.341 0-9.685 4.344-9.685 9.685 0 5.34 4.344 9.684 9.685 9.684 5.34 0 9.685-4.344 9.685-9.684 0-5.34-4.345-9.685-9.685-9.685m19.744 13.477h-2.587a17.484 17.484 0 0 1-2.235 5.475l1.807 1.806a3.149 3.149 0 0 1 0 4.437l-1.098 1.097a3.147 3.147 0 0 1-4.437 0l-1.78-1.78a17.453 17.453 0 0 1-5.501 2.302v2.494a3.146 3.146 0 0 1-3.138 3.137h-1.551a3.146 3.146 0 0 1-3.137-3.137v-2.494a17.468 17.468 0 0 1-5.502-2.302l-1.78 1.78a3.147 3.147 0 0 1-4.437 0l-1.097-1.097a3.149 3.149 0 0 1 0-4.437l1.807-1.806a17.437 17.437 0 0 1-2.235-5.475h-2.588a3.147 3.147 0 0 1-3.137-3.137v-1.552a3.147 3.147 0 0 1 3.137-3.137h2.643a17.483 17.483 0 0 1 2.274-5.38l-1.901-1.902a3.148 3.148 0 0 1 0-4.436l1.097-1.097a3.147 3.147 0 0 1 4.437 0l1.927 1.927a17.465 17.465 0 0 1 5.355-2.208v-2.736a3.147 3.147 0 0 1 3.137-3.137h1.55a3.147 3.147 0 0 1 3.139 3.137v2.736a17.475 17.475 0 0 1 5.355 2.208l1.926-1.927a3.147 3.147 0 0 1 4.437 0l1.098 1.097a3.148 3.148 0 0 1 0 4.436l-1.902 1.901a17.461 17.461 0 0 1 2.275 5.381h2.642a3.146 3.146 0 0 1 3.137 3.137v1.552a3.146 3.146 0 0 1-3.137 3.137"/><path fill="#ffbe2e" d="M639.596 360.889l-8.43-14.868-8.428-14.867-8.662 14.734-8.661 14.734 17.09.133z"/><path fill="#ffbe2e" d="M406.255 284.539l-4.168 9.639 119.626 51.73 35.58-24.07 63.598 34.322 4.986-9.242-69.196-37.344-36.083 24.41z"/><path fill="#a7e593" d="M618.084 213.955h-88.988c-5.632 0-10.198-4.565-10.198-10.197v-75.527c0-5.63 4.566-10.197 10.198-10.197h88.988c5.632 0 10.197 4.566 10.197 10.197v75.527c0 5.632-4.565 10.197-10.197 10.197"/><path fill="#cbf4cb" d="M618.084 205.902h-88.988c-5.632 0-10.198-4.565-10.198-10.197v-75.527c0-5.63 4.566-10.197 10.198-10.197h88.988c5.632 0 10.197 4.566 10.197 10.197v75.527c0 5.632-4.565 10.197-10.197 10.197"/><path fill="#ace885" d="M627.42 169.3H585.9c-4.317 0-7.847-3.53-7.847-7.846v-7.024c0-4.316 3.53-7.847 7.847-7.847h41.522c4.315 0 7.847 3.53 7.847 7.847v7.024c0 4.317-3.532 7.847-7.847 7.847"/><path fill="#6fbc5c" d="M595.419 157.941a5.243 5.243 0 1 0-10.487.001 5.243 5.243 0 0 0 10.487 0"/><g clip-path="url(#e)" opacity=".35"><path fill="#88f2e0" d="M542.124 119.05v94.92h-22.95v-94.92c0-5.016 4.11-9.082 9.18-9.082h4.589c5.071 0 9.181 4.066 9.181 9.083"/></g><path fill="#7ccbf2" d="M518.573 270.446h-76.497a9.181 9.181 0 0 1-9.18-9.181V118.503a9.182 9.182 0 0 1 9.18-9.182h76.497c2.014 0 3.87.657 5.384 1.756a9.157 9.157 0 0 1 3.797 7.426v142.762a9.181 9.181 0 0 1-9.18 9.18"/><path fill="#dcf3ff" d="M440.317 260.66V128.423h80.016V260.66z"/><g clip-path="url(#f)" opacity=".16"><path fill="#76b6cc" d="M520.333 260.66h-80.016V128.423h4.085v127.64h75.931z"/></g><path fill="#ffd337" d="M445.508 109.321h-61.891v11.746h61.891z"/><path fill="#f7c219" d="M431.375 109.321h-47.758v11.746h47.758z"/><path fill="#f2b303" d="M396.851 109.321h-13.233v11.746h13.233z"/><g clip-path="url(#g)" opacity=".49"><path fill="#d69005" d="M445.508 109.321h-61.891v1.796h61.891z"/></g><path fill="#ffd337" d="M452.28 120.813h-61.891v11.745h61.891z"/><path fill="#f7c219" d="M438.148 120.813h-47.759v11.745h47.759z"/><path fill="#f2b303" d="M403.623 120.813H390.39v11.745h13.233z"/><g clip-path="url(#h)" opacity=".49"><path fill="#d69005" d="M452.28 120.813h-61.891v1.795h61.891z"/></g><path fill="#ffd337" d="M445.508 132.303h-61.891v11.745h61.891z"/><path fill="#f7c219" d="M431.375 132.303h-47.758v11.745h47.758z"/><path fill="#f2b303" d="M396.851 132.303h-13.233v11.745h13.233z"/><g clip-path="url(#i)" opacity=".49"><path fill="#d69005" d="M445.508 132.303h-61.891v1.795h61.891z"/></g><path fill="#ffd337" d="M440.239 143.793h-61.891v11.746h61.891z"/><path fill="#f7c219" d="M426.107 143.793h-47.759v11.746h47.759z"/><path fill="#f2b303" d="M391.582 143.793h-13.233v11.746h13.233z"/><g clip-path="url(#j)" opacity=".49"><path fill="#d69005" d="M440.239 143.793h-61.891v1.795h61.891z"/></g><path fill="#ffd337" d="M447.222 155.283h-61.891v11.746h61.891z"/><path fill="#f7c219" d="M433.09 155.283h-47.759v11.746h47.759z"/><path fill="#f2b303" d="M398.564 155.283h-13.233v11.746h13.233z"/><g clip-path="url(#k)" opacity=".49"><path fill="#d69005" d="M447.222 155.283h-61.891v1.795h61.891z"/></g><path fill="#ffbe2e" d="M488.752 272.72l-2.644 4.58-2.643 4.58h10.575l-2.643-4.58z"/><path fill="#ffbe2e" d="M488.974 279.69a1.528 1.528 0 0 0-1.22 2.449 58.952 58.952 0 0 0 2.984 3.645 1.53 1.53 0 0 0 2.286-2.032 54.734 54.734 0 0 1-2.826-3.453 1.528 1.528 0 0 0-1.224-.61m49.986 22.372c-.043 0-.085.001-.129.005a56.056 56.056 0 0 1-8.519.057c-.827-.042-1.574.577-1.632 1.419a1.53 1.53 0 0 0 1.42 1.632c2.987.208 6.028.188 8.985-.06a1.528 1.528 0 0 0-.125-3.053m-25.767-3.831a1.53 1.53 0 0 0-.569 2.95 57.973 57.973 0 0 0 8.583 2.679 1.53 1.53 0 0 0 .682-2.983 54.662 54.662 0 0 1-8.128-2.536 1.541 1.541 0 0 0-.568-.11m42.729-.294c-.195 0-.396.038-.587.118a54.673 54.673 0 0 1-8.098 2.651 1.53 1.53 0 0 0 .722 2.972 57.837 57.837 0 0 0 8.552-2.799 1.53 1.53 0 0 0-.589-2.942m-57.738-8.617a1.53 1.53 0 0 0-.975 2.708 58.319 58.319 0 0 0 7.353 5.176 1.53 1.53 0 0 0 1.562-2.631 55.365 55.365 0 0 1-6.967-4.903 1.527 1.527 0 0 0-.973-.35m72.627-.502c-.351 0-.703.119-.991.364a55.417 55.417 0 0 1-6.898 4.999 1.529 1.529 0 1 0 1.599 2.608 58.36 58.36 0 0 0 7.28-5.276 1.531 1.531 0 0 0-.99-2.695m11.412-13.207a1.53 1.53 0 0 0-1.299.719 55.226 55.226 0 0 1-5.056 6.854 1.53 1.53 0 0 0 2.316 2 58.43 58.43 0 0 0 5.335-7.233 1.53 1.53 0 0 0-1.296-2.34m6.84-16.049a1.53 1.53 0 0 0-1.482 1.155 54.704 54.704 0 0 1-2.721 8.068 1.53 1.53 0 1 0 2.814 1.2 57.781 57.781 0 0 0 2.873-8.52 1.529 1.529 0 0 0-1.484-1.903m1.717-17.382c-.844 0-1.529.684-1.529 1.529v3.497c0 1.707-.078 3.428-.234 5.118a1.529 1.529 0 0 0 1.382 1.663 1.522 1.522 0 0 0 1.664-1.383c.165-1.782.248-3.599.247-5.399v-3.496a1.53 1.53 0 0 0-1.53-1.529m0-13.397a1.53 1.53 0 0 0-1.529 1.53v4.588a1.528 1.528 0 1 0 3.058 0v-4.588a1.53 1.53 0 0 0-1.529-1.53"/><path fill="#ffbe2e" d="M590.58 220.377l-2.893 5.009-2.89 5.009h11.564l-2.89-5.009z"/><path fill="#dcf3ff" d="M480.325 125.055a5.987 5.987 0 0 1-5.988-5.988 5.987 5.987 0 1 1 11.975 0 5.987 5.987 0 0 1-5.987 5.988"/><path fill="#76b6cc" d="M508.461 206.862h-56.272v9.379h56.272z"/><path fill="#e9f7ff" d="M504.412 99.677h-48.233v113.215h48.233z"/><path fill="#c3e5f4" d="M486.661 207.508H458.94v1.732h27.721zm-27.721-10.514h40.712v1.452H458.94zm0-8.813h40.712v1.452H458.94zm0-11.098h40.712v1.451H458.94zm0-8.813h40.712v1.451H458.94zm0-11.099h40.712v1.451H458.94zm0-8.814h40.712v1.451H458.94zm0-11.098h40.712v1.452H458.94zm0-8.814h40.712v1.452H458.94zm0-11.098h40.712v1.452H458.94zm0-8.814h24.595v1.452H458.94z"/><g clip-path="url(#l)" opacity=".37"><path fill="#f7c219" d="M388.617 162.62c-1.042 0-2.068-.066-3.08-.183v-52.932a26.783 26.783 0 0 1 3.08-.184c14.72 0 26.65 11.932 26.65 26.65 0 14.717-11.93 26.65-26.65 26.65"/></g><path fill="#f2b303" d="M403.2 138.452c0-14.003-11.353-25.354-25.355-25.354-14.003 0-25.355 11.351-25.355 25.354 0 14.003 11.352 25.354 25.355 25.354 14.002 0 25.354-11.35 25.354-25.354"/><path fill="#f7c219" d="M403.2 134.676c0-14.003-11.353-25.354-25.355-25.354-14.003 0-25.355 11.35-25.355 25.354 0 14.003 11.352 25.355 25.355 25.355 14.002 0 25.354-11.352 25.354-25.355"/><path fill="#f2b303" d="M398.53 134.676c0-11.424-9.262-20.685-20.686-20.685-11.423 0-20.685 9.26-20.685 20.685 0 11.425 9.262 20.686 20.685 20.686 11.424 0 20.686-9.261 20.686-20.686"/><g clip-path="url(#m)" opacity=".36"><path fill="#e28c03" d="M377.845 152.83c11.032 0 20.044-8.638 20.65-19.519.022.387.036.777.036 1.168 0 11.425-9.262 20.686-20.686 20.686s-20.685-9.26-20.685-20.686c0-.39.013-.78.035-1.168.606 10.881 9.618 19.518 20.65 19.518"/></g><path fill="#f2b303" d="M377.845 113.795c11.032 0 20.044 8.637 20.65 19.517-.606 10.88-9.618 19.517-20.65 19.517-11.032 0-20.044-8.637-20.65-19.517.606-10.88 9.618-19.517 20.65-19.517"/><g clip-path="url(#n)" opacity=".36"><text fill="#e28c03" font-family="Metropolis Black" font-size="30.249" font-weight="900" style="-inkscape-font-specification:Metropolis-Black" transform="matrix(.98765 0 0 -1 369.617 123.488)"><tspan x="0" y="0">$</tspan></text></g></g><text fill="#ffe5ab" font-family="Metropolis Black" font-size="30.249" font-weight="900" style="-inkscape-font-specification:Metropolis-Black" transform="matrix(1.31687 0 0 1.33333 54.342 315.382)"><tspan x="0" y="0">$</tspan></text><g clip-path="url(#o)" transform="matrix(1.33333 0 0 -1.33333 -436.753 481.185)"><path fill="#7c7cce" d="M440.795 170.13c-1.11 1.753-3.306 2.445-5.348 2.802-4.268.746-8.636-1.32-12.92-.658l-2.466.38-1.058-6.854c.982-.171 2.02-.335 2.667-.926a22.399 22.399 0 0 1 11.24-5.507c2.21-.381 4.737-.334 6.378 1.197 1.087 1.014 1.585 2.504 1.918 3.953.432 1.879.62 3.986-.411 5.614"/><path fill="#46468c" d="M438.36 170.507c-1.11 1.75-3.305 2.443-5.348 2.8-4.268.747-8.635-1.32-12.919-.657l-2.466.379-1.058-6.853c.981-.172 2.021-.336 2.667-.926a22.393 22.393 0 0 1 11.24-5.508c2.211-.38 4.737-.333 6.377 1.198 1.088 1.013 1.585 2.504 1.918 3.953.433 1.879.621 3.985-.41 5.614"/><path fill="#f4a28c" d="M391.557 213.086s-3.798-12.992-1.6-18.19c2.2-5.197 11.194-11.193 11.194-11.193s2.199 14.79 2.199 15.39c0 .6-11.793 13.993-11.793 13.993m44.087 0s3.798-12.992 1.6-18.19c-2.2-5.197-11.194-11.193-11.194-11.193s-2.199 14.79-2.199 15.39c0 .6 11.793 13.993 11.793 13.993"/><path fill="#5fc0c3" d="M437.638 210.969s-3.365 13.798-13.461 18.509c-4.582 2.138-7.497 3.443-9.317 4.232l.23 1.153s-.357-.121-1.514-.605c-1.156.484-1.514.605-1.514.605l.232-1.153c-1.821-.79-4.736-2.094-9.318-4.232-10.096-4.711-13.461-18.51-13.461-18.51l7.403-5.047-2.018-26.25h37.354l-2.02 26.25z"/><path fill="#f4a28c" d="M413.576 234.64c-3.416 0-6.185-4.005-6.185-8.946 0-4.943 2.77-8.95 6.185-8.95 3.416 0 6.185 4.007 6.185 8.95 0 4.94-2.769 8.947-6.185 8.947"/><path fill="#feb49d" d="M425.041 243.45c0-8.02-5.272-17.306-11.777-17.306-6.504 0-11.777 9.285-11.777 17.306 0 8.022 5.273 11.744 11.777 11.744 6.505 0 11.777-3.722 11.777-11.744"/><path fill="#56569b" d="M406.17 223.806c-1.032-3.037 1.225-6.448 2.326-9.104 1.89-4.557-1.077-10.513-5.895-11.573-4.82-1.06-10.087 3.32-9.75 8.242.218 3.18 2.358 5.98 2.6 9.159.417 5.465-.042 7.664-2.257 12.678-1.516 3.433-1.253 8.883.785 12.158 1.954 3.14 5.23 4.984 5.869 8.89.504 3.088 1.718 6.266 4.456 8.035 3.352 2.166 8.123 1.648 11.128-.9 3.515-2.982 3.53-8.414.824-12.005-1.151-1.527-3.522-2.742-5.295-3.455-3.082-1.236-7.487-1.578-8.227-4.815-1.002-4.394 1.322-8.211 3.655-11.242.53-.69 1.899-1.47 1.934-2.386.056-1.482-1.703-2.357-2.153-3.682"/><path fill="#56569b" d="M428.608 249.072c.643-5.942-2.249-12.011-.804-17.81.775-3.112 2.73-5.793 3.861-8.795 1.52-4.033 1.471-8.634-.13-12.634-1.082-2.698-3.049-5.26-5.842-6.062-2.793-.804-6.33.877-6.684 3.76-.374 3.052 2.646 5.577 2.844 8.644.295 4.569-4.295 5.236-3.848 9.793.347 3.544 5.073 6.045 6.046 11.187.612 3.233.69 7.55-1.499 10.006-1.379 1.547-3.297 2.478-5.06 3.563-3.787 2.329-8.198 10.552-1.53 11.46 7.954 1.086 12.07-7.787 12.646-13.112"/><path fill="#feb49d" d="M426.434 240.752c-.561-1.263-1.56-2.467-2.922-2.693-.913-.153-1.995.299-2.224 1.196-.156.604.102 1.235.403 1.782.667 1.208 1.952 2.591 3.258 3.155 2.33 1.008 2.12-2.008 1.485-3.44m-26.154-.589c.462-1.302 1.367-2.578 2.708-2.908.898-.22 2.012.148 2.31 1.024.2.591-.009 1.24-.268 1.808-.572 1.255-1.749 2.731-3.009 3.393-2.247 1.182-2.265-1.84-1.742-3.317"/><path fill="#e2e0e0" d="M431.293 179.693H395.86l-1.811 27.552h39.055z"/><path fill="#2a4241" d="M384.003 182.034c-1.25-3.739.637-7.77 4.19-8.957l33.348-11.135 4.54 13.6-33.347 11.135c-3.553 1.186-7.482-.903-8.731-4.643"/><path fill="#7c7cce" d="M381.773 170.13c1.11 1.753 3.305 2.445 5.348 2.802 4.268.746 8.635-1.32 12.92-.658l2.465.38 1.058-6.854c-.98-.171-2.02-.335-2.667-.926a22.392 22.392 0 0 0-11.239-5.507c-2.21-.381-4.738-.334-6.378 1.197-1.088 1.014-1.585 2.504-1.918 3.953-.433 1.879-.62 3.986.411 5.614"/><path fill="#46468c" d="M384.207 170.507c1.11 1.75 3.305 2.443 5.348 2.8 4.268.747 8.636-1.32 12.919-.657l2.467.379 1.058-6.853c-.982-.172-2.021-.336-2.667-.926a22.4 22.4 0 0 0-11.24-5.508c-2.211-.38-4.737-.333-6.378 1.198-1.088 1.013-1.585 2.504-1.918 3.953-.432 1.879-.621 3.985.411 5.614"/><path fill="#354c4c" d="M438.565 182.034c1.249-3.739-.637-7.77-4.19-8.957l-33.348-11.135-4.54 13.6 33.347 11.135c3.552 1.186 7.482-.903 8.73-4.643"/><path fill="#f7c219" d="M600.47 198.727c0-21.556 17.475-39.03 39.03-39.03 21.557 0 39.032 17.474 39.032 39.03s-17.475 39.03-39.031 39.03c-21.556 0-39.031-17.474-39.031-39.03"/><path fill="#f2b303" d="M607.658 198.727c0-17.586 14.256-31.843 31.843-31.843 17.586 0 31.842 14.257 31.842 31.843s-14.256 31.843-31.842 31.843c-17.587 0-31.843-14.257-31.843-31.843"/><g clip-path="url(#p)" opacity=".36"><path fill="#e28c03" d="M639.501 226.67c-16.982 0-30.856-13.295-31.789-30.044a32.475 32.475 0 0 0-.054 1.799c0 17.586 14.256 31.843 31.843 31.843 17.586 0 31.842-14.257 31.842-31.843 0-.605-.021-1.203-.054-1.8-.933 16.75-14.806 30.045-31.788 30.045"/></g><path fill="#f2b303" d="M639.501 166.582c-16.982 0-30.856 13.295-31.789 30.044.933 16.749 14.807 30.044 31.789 30.044s30.855-13.295 31.788-30.044c-.933-16.749-14.806-30.044-31.788-30.044"/><g clip-path="url(#q)" opacity=".36"><text fill="#e28c03" font-family="Metropolis Black" font-size="46.565" font-weight="900" style="-inkscape-font-specification:Metropolis-Black" transform="matrix(.98765 0 0 -1 626.158 181.219)"><tspan x="0" y="0">$</tspan></text></g></g><text fill="#ffe5ab" font-family="Metropolis Black" font-size="46.565" font-weight="900" style="-inkscape-font-specification:Metropolis-Black" transform="matrix(1.31687 0 0 1.33333 395.733 237.405)"><tspan x="0" y="0">$</tspan></text><path fill="#76cbff" d="M481.255 388.854s3.219 2.707 1.223 8.695h-26.945s-1.331-6.321 16.06-8.695z"/><path fill="#013247" d="M501.371 266.11s6.067 21.029-3.64 35.589l-2.328 4.036a18.646 18.646 0 0 0-1.96 13.748l16.376 69.362-9.619.238s-36.442-56.646-37.25-71.61c-.81-14.965 8.896-48.533 8.896-48.533z"/><path fill="#053b60" d="M460.467 269.376s-8.766 41.61-9.336 54.115c-.568 12.504 20.463 65.363 20.463 65.363h9.661s-4.729-67.063-1.318-75.02c3.409-7.959 22.628-36.75 18.604-51.366-4.027-14.616-38.074 6.908-38.074 6.908"/><path fill="#feb49d" d="M442.677 254.745c.119-.034.237-.07.355-.107 1.486-.472 2.912-1.107 4.352-1.699 1.614-.666 3.606-1.409 4.738-2.817.9-1.119.263-2.645-.534-3.623-1.144-1.394-2.51-1.56-4.184-1.914-1.035-.22-2.04-.543-2.962-1.072-1.538-.883-2.956-1.97-4.52-2.81-.477-.256-1.002-.493-1.54-.422-1.417.188-.605 1.461-.032 2.13.395.458 2.7 2.127 2.196 2.64-.805.822-2.61-.166-3.448-.473-1.446-.53-2.849-1.196-4.134-2.052-1.472-.98-3.539-3.21-5.448-1.936-.648.433-.986 1.197-1.15 1.935-.642 2.892.45 5.981 2.06 8.37a8.406 8.406 0 0 0 3.818 3.124c3.298 1.36 6.99 1.716 10.433.726"/><path fill="#a1d9df" d="M491.927 191.89s5.195 2.771 5.732 7.615c.537 4.844 3.712 66.604 3.712 66.604s-16.09 10.362-41.387 5.518c0 0 8.343-57.59 11.572-65.394 3.23-7.805 7.803-10.226 7.803-10.226z"/><path fill="#f9a791" d="M480.557 184.5l-2.273 13.928s9.38.57 13.643-6.537l.853-13.644z"/><path fill="#feb49d" d="M471.695 178.327c.115-2.539.562-5.05 1.008-7.55.595-3.336 1.188-6.672 1.784-10.006.347-1.948.248-6.114 1.482-7.64 2.902-3.594 11.566-2.815 15.286-1.547 1.206.412 2.394.961 3.322 1.835 2.28 2.145 2.497 5.633 2.562 8.762l1.655 4.326c-.403.366-.49.957-.543 1.498-.498 5.26.056 11.246-3.566 15.092-2.402 2.548-6.06 3.423-9.524 3.922-2.424.348-4.92.57-7.3-.004-2.38-.575-4.654-2.07-5.603-4.327-.573-1.363-.628-2.885-.563-4.361"/><path fill="#56569b" d="M480.626 145.469c-2.885-.836-5.59-2.294-8.55-2.806-1.511-.26-3.252-.196-4.327.896-.695.704-.979 1.706-1.221 2.664-1.155 4.54-1.892 9.736.773 13.59 2.184 3.158 6.548 4.613 10.19 3.394 2.394-.8 4.333-2.566 6.573-3.734 2.238-1.17 5.24-1.623 7.105.08 1.801 1.641 1.877 4.69 3.853 6.113 1.175.848 2.799.89 4.154.376 1.354-.515 2.472-1.515 3.412-2.617 2.404-2.819 3.837-6.463 3.945-10.166.079-2.672-.575-5.464-2.335-7.476-1.777-2.029-4.518-3.052-7.214-3.138-6.123-.198-10.14 4.625-16.358 2.824"/><path fill="#feb49d" d="M499.708 161.15c5.286-.198 2.139 9.686-.548 11.293-.273.163-.56.32-.873.373-.52.086-1.048-.128-1.477-.43-3.39-2.394-1.728-11.062 2.898-11.236"/><path fill="#a1d9df" d="M491.388 198.085c-3.19 3.976-5.195 8.744-7.375 13.35a166.147 166.147 0 0 1-14.836 25.286c-.885 1.242-1.81 2.494-3.041 3.394-2.067 1.51-4.735 1.854-7.276 2.151-4.304.501-8.608 1.004-12.912 1.507v10.092c12.53.965 25.557.181 37.476-3.803 1.96-.655 3.941-1.399 5.515-2.735 2.053-1.745 3.2-4.313 4.105-6.85 4.904-13.758 4.103-28.97-1.656-42.392"/><path fill="#80d2d6" d="M491.388 198.085s-8.63 22.274-16.703 35.461l-9.036 6.497s9.511-10.618 25.739-41.958"/><path fill="#76cbff" d="M509.865 388.854s3.218 2.707 1.222 8.695h-26.945s-1.33-6.321 16.061-8.695z"/></svg>