<svg width="50" height="51" viewBox="0 0 50 51" fill="none" xmlns="http://www.w3.org/2000/svg">
<path d="M35.416 42.3138H45.8327V38.1471C45.8326 36.8482 45.4278 35.5817 44.6746 34.5234C43.9215 33.4652 42.8573 32.6679 41.6301 32.2425C40.4029 31.817 39.0736 31.7844 37.827 32.1493C36.5804 32.5141 35.4785 33.2583 34.6743 34.2784M35.416 42.3138H14.5827M35.416 42.3138V38.1471C35.416 36.7805 35.1535 35.4742 34.6743 34.2784M34.6743 34.2784C33.9007 32.345 32.5655 30.6877 30.841 29.5203C29.1165 28.3529 27.0818 27.729 24.9993 27.729C22.9169 27.729 20.8822 28.3529 19.1577 29.5203C17.4332 30.6877 16.098 32.345 15.3243 34.2784M14.5827 42.3138H4.16602V38.1471C4.16611 36.8482 4.57088 35.5817 5.32406 34.5234C6.07724 33.4652 7.1414 32.6679 8.36862 32.2425C9.59584 31.817 10.9251 31.7844 12.1717 32.1493C13.4183 32.5141 14.5202 33.2583 15.3243 34.2784M14.5827 42.3138V38.1471C14.5827 36.7805 14.8452 35.4742 15.3243 34.2784M31.2493 15.2305C31.2493 16.8881 30.5909 18.4778 29.4188 19.6499C28.2467 20.822 26.657 21.4805 24.9993 21.4805C23.3417 21.4805 21.752 20.822 20.5799 19.6499C19.4078 18.4778 18.7493 16.8881 18.7493 15.2305C18.7493 13.5729 19.4078 11.9832 20.5799 10.8111C21.752 9.63895 23.3417 8.98047 24.9993 8.98047C26.657 8.98047 28.2467 9.63895 29.4188 10.8111C30.5909 11.9832 31.2493 13.5729 31.2493 15.2305ZM43.7493 21.4805C43.7493 22.5855 43.3104 23.6453 42.529 24.4267C41.7476 25.2081 40.6877 25.6471 39.5827 25.6471C38.4776 25.6471 37.4178 25.2081 36.6364 24.4267C35.855 23.6453 35.416 22.5855 35.416 21.4805C35.416 20.3754 35.855 19.3156 36.6364 18.5342C37.4178 17.7528 38.4776 17.3138 39.5827 17.3138C40.6877 17.3138 41.7476 17.7528 42.529 18.5342C43.3104 19.3156 43.7493 20.3754 43.7493 21.4805ZM14.5827 21.4805C14.5827 22.5855 14.1437 23.6453 13.3623 24.4267C12.5809 25.2081 11.5211 25.6471 10.416 25.6471C9.31095 25.6471 8.25114 25.2081 7.46974 24.4267C6.68834 23.6453 6.24935 22.5855 6.24935 21.4805C6.24935 20.3754 6.68834 19.3156 7.46974 18.5342C8.25114 17.7528 9.31095 17.3138 10.416 17.3138C11.5211 17.3138 12.5809 17.7528 13.3623 18.5342C14.1437 19.3156 14.5827 20.3754 14.5827 21.4805Z" stroke="#754FFE" stroke-width="4.16667" stroke-linecap="round" stroke-linejoin="round"/>
</svg>
