<svg width="50" height="51" viewBox="0 0 50 51" fill="none" xmlns="http://www.w3.org/2000/svg">
<path d="M8.33398 11.1243C8.33398 10.5718 8.55348 10.0419 8.94418 9.65121C9.33488 9.26051 9.86478 9.04102 10.4173 9.04102H39.584C40.1365 9.04102 40.6664 9.26051 41.0571 9.65121C41.4478 10.0419 41.6673 10.5718 41.6673 11.1243V15.291C41.6673 15.8435 41.4478 16.3735 41.0571 16.7642C40.6664 17.1549 40.1365 17.3743 39.584 17.3743H10.4173C9.86478 17.3743 9.33488 17.1549 8.94418 16.7642C8.55348 16.3735 8.33398 15.8435 8.33398 15.291V11.1243ZM8.33398 27.791C8.33398 27.2385 8.55348 26.7086 8.94418 26.3179C9.33488 25.9272 9.86478 25.7077 10.4173 25.7077H22.9173C23.4699 25.7077 23.9998 25.9272 24.3905 26.3179C24.7812 26.7086 25.0007 27.2385 25.0007 27.791V40.291C25.0007 40.8435 24.7812 41.3735 24.3905 41.7642C23.9998 42.1549 23.4699 42.3743 22.9173 42.3743H10.4173C9.86478 42.3743 9.33488 42.1549 8.94418 41.7642C8.55348 41.3735 8.33398 40.8435 8.33398 40.291V27.791ZM33.334 27.791C33.334 27.2385 33.5535 26.7086 33.9442 26.3179C34.3349 25.9272 34.8648 25.7077 35.4173 25.7077H39.584C40.1365 25.7077 40.6664 25.9272 41.0571 26.3179C41.4478 26.7086 41.6673 27.2385 41.6673 27.791V40.291C41.6673 40.8435 41.4478 41.3735 41.0571 41.7642C40.6664 42.1549 40.1365 42.3743 39.584 42.3743H35.4173C34.8648 42.3743 34.3349 42.1549 33.9442 41.7642C33.5535 41.3735 33.334 40.8435 33.334 40.291V27.791Z" stroke="#754FFE" stroke-width="4.16667" stroke-linecap="round" stroke-linejoin="round"/>
</svg>
