<svg width="50" height="51" viewBox="0 0 50 51" fill="none" xmlns="http://www.w3.org/2000/svg">
<path d="M39.3333 23.6667H10.1667M39.3333 23.6667C40.4384 23.6667 41.4982 24.1057 42.2796 24.8871C43.061 25.6685 43.5 26.7283 43.5 27.8333V40.3333C43.5 41.4384 43.061 42.4982 42.2796 43.2796C41.4982 44.061 40.4384 44.5 39.3333 44.5H10.1667C9.0616 44.5 8.00179 44.061 7.22039 43.2796C6.43899 42.4982 6 41.4384 6 40.3333V27.8333C6 26.7283 6.43899 25.6685 7.22039 24.8871C8.00179 24.1057 9.0616 23.6667 10.1667 23.6667M39.3333 23.6667V19.5C39.3333 18.3949 38.8943 17.3351 38.1129 16.5537C37.3315 15.7723 36.2717 15.3333 35.1667 15.3333M10.1667 23.6667V19.5C10.1667 18.3949 10.6057 17.3351 11.3871 16.5537C12.1685 15.7723 13.2283 15.3333 14.3333 15.3333M35.1667 15.3333V11.1667C35.1667 10.0616 34.7277 9.00179 33.9463 8.22039C33.1649 7.43899 32.1051 7 31 7H18.5C17.3949 7 16.3351 7.43899 15.5537 8.22039C14.7723 9.00179 14.3333 10.0616 14.3333 11.1667V15.3333M35.1667 15.3333H14.3333" stroke="#754FFE" stroke-width="4.16667" stroke-linecap="round" stroke-linejoin="round"/>
</svg>
